#!OML:ASF X:\für Bonn\!DataBase\2005_08_11_Bastian_Final\c3d\Bastian.ASF
:FULLY-SPECIFIED
:DEGREES
141
root 0.160247 14.2381 6.82276 174.778 -8.18922 -180.327
lowerback 25.2563 -1.58173 0.302606
upperback 7.07015 -3.4936 -0.42141
thorax -6.22682 -2.30702 0.474632
lowerneck -16.5513 -5.25502 -2.75885
upperneck -8.02501 -8.00084 10.5619
head 0.836428 -4.4555 3.46091
rclavicle 2.64384e-014 -4.96962e-015
rhumerus 70.0038 11.7745 -1.24644
rradius 38.0936
rwrist -45.7757
rhand -44.0122 -3.50543
rfingers 7.12502
rthumb -16.833 -32.7958
lclavicle 2.64384e-014 -4.96962e-015
lhumerus 68.0209 -13.4885 -9.3942
lradius 31.926
lwrist 2.73517
lhand -42.6496 14.4016
lfingers 7.12502
lthumb -15.5209 43.7987
rfemur -36.0389 -13.3422 23.4061
rtibia 88.3757
rfoot -36.1975 -4.45029
rtoes 3.38307
lfemur -36.0576 3.03169 -18.9943
ltibia 85.5682
lfoot -32.0064 -13.2663
ltoes -2.02487
142
root 0.159588 14.4383 6.80755 174.965 -8.27404 -180.349
lowerback 24.8179 -1.60348 0.185354
upperback 6.96242 -3.49939 -0.36799
thorax -6.11779 -2.29102 0.581511
lowerneck -16.1553 -5.23256 -2.91944
upperneck -7.99858 -7.91026 10.7225
head 0.790266 -4.39817 3.56318
rclavicle 3.45885e-014 -4.57205e-015
rhumerus 70.0765 12.3057 -1.31859
rradius 37.9853
rwrist -45.5219
rhand -43.8276 -3.76617
rfingers 7.12502
rthumb -16.6552 -33.0716
lclavicle 3.45885e-014 -4.57205e-015
lhumerus 68.2457 -13.9144 -9.66031
lradius 31.8911
lwrist 2.97673
lhand -42.6395 14.2931
lfingers 7.12502
lthumb -15.5112 43.691
rfemur -34.8831 -13.0536 23.3708
rtibia 85.9345
rfoot -35.67 -4.66487
rtoes 3.25737
lfemur -34.8231 2.89746 -19.0362
ltibia 82.978
lfoot -31.3068 -13.13
ltoes -2.00731
143
root 0.158959 14.6341 6.79217 175.156 -8.35579 -180.394
lowerback 24.3795 -1.61965 0.0505093
upperback 6.85672 -3.50417 -0.334925
thorax -6.0058 -2.27495 0.675629
lowerneck -15.8417 -5.22396 -2.98056
upperneck -7.90035 -7.8566 10.7912
head 0.774163 -4.35716 3.60871
rclavicle -6.65929e-015 1.13307e-014
rhumerus 70.1135 12.8407 -1.5672
rradius 37.8468
rwrist -45.1477
rhand -43.5867 -4.05623
rfingers 7.12502
rthumb -16.4233 -33.381
lclavicle -6.65929e-015 1.13307e-014
lhumerus 68.4647 -14.3146 -9.8455
lradius 31.8428
lwrist 3.07538
lhand -42.5916 14.1597
lfingers 7.12502
lthumb -15.4651 43.5611
rfemur -33.7289 -12.7571 23.3107
rtibia 83.5006
rfoot -35.1211 -4.85909
rtoes 3.24737
lfemur -33.6089 2.7761 -19.103
ltibia 80.4022
lfoot -30.5579 -12.9805
ltoes -2.0395
144
root 0.157855 14.8238 6.77666 175.341 -8.4494 -180.415
lowerback 23.9204 -1.6436 -0.0524332
upperback 6.77301 -3.51468 -0.296998
thorax -5.85918 -2.26414 0.756342
lowerneck -15.6067 -5.21387 -3.00403
upperneck -7.78142 -7.81149 10.8027
head 0.773508 -4.32065 3.62429
rclavicle 5.41688e-015 -3.97569e-016
rhumerus 70.1233 13.3434 -1.91487
rradius 37.66
rwrist -44.7071
rhand -43.279 -4.22492
rfingers 7.12502
rthumb -16.1271 -33.5739
lclavicle 5.41688e-015 -3.97569e-016
lhumerus 68.6942 -14.7081 -10.1731
lradius 31.8324
lwrist 3.32876
lhand -42.6354 14.0426
lfingers 7.12502
lthumb -15.5072 43.4408
rfemur -32.5907 -12.4966 23.2772
rtibia 81.094
rfoot -34.5618 -5.08758
rtoes 2.94553
lfemur -32.411 2.66984 -19.1472
ltibia 77.8601
lfoot -29.8344 -12.7701
ltoes -2.5007
145
root 0.156225 15.0092 6.76037 175.519 -8.51204 -180.416
lowerback 23.4732 -1.65392 -0.147195
upperback 6.68235 -3.50403 -0.246772
thorax -5.72471 -2.24309 0.840365
lowerneck -15.3664 -5.20992 -2.99739
upperneck -7.67268 -7.77887 10.7733
head 0.765523 -4.2921 3.61926
rclavicle 2.86747e-014 -1.2921e-014
rhumerus 70.1063 13.8667 -2.21099
rradius 37.5257
rwrist -44.3368
rhand -42.9971 -4.40529
rfingers 7.12502
rthumb -15.8555 -33.7761
lclavicle 2.86747e-014 -1.2921e-014
lhumerus 68.9529 -15.1043 -10.5699
lradius 31.8418
lwrist 3.65201
lhand -42.7093 13.9012
lfingers 7.12502
lthumb -15.5784 43.2938
rfemur -31.4489 -12.2119 23.2717
rtibia 78.6998
rfoot -33.9423 -5.30649
rtoes 2.80483
lfemur -31.2167 2.58876 -19.1601
ltibia 75.3381
lfoot -29.0333 -12.6218
ltoes -2.60671
146
root 0.154875 15.1881 6.74479 175.705 -8.59723 -180.416
lowerback 23.0226 -1.67522 -0.213823
upperback 6.59566 -3.50256 -0.209065
thorax -5.58529 -2.22706 0.896958
lowerneck -15.1847 -5.2152 -2.99657
upperneck -7.54073 -7.76153 10.7534
head 0.776981 -4.26973 3.61565
rclavicle 2.85256e-014 -5.56597e-015
rhumerus 70.0541 14.3825 -2.44632
rradius 37.4034
rwrist -43.9936
rhand -42.7393 -4.61152
rfingers 7.12502
rthumb -15.6073 -34.0019
lclavicle 2.85256e-014 -5.56597e-015
lhumerus 69.2089 -15.4785 -10.9273
lradius 31.8433
lwrist 3.87938
lhand -42.7859 13.8149
lfingers 7.12502
lthumb -15.6522 43.2018
rfemur -30.3442 -11.9396 23.2692
rtibia 76.3477
rfoot -33.2917 -5.52358
rtoes 2.65873
lfemur -30.0512 2.49624 -19.1786
ltibia 72.8378
lfoot -28.2142 -12.4493
ltoes -2.91225
147
root 0.153828 15.362 6.72849 175.873 -8.65682 -180.414
lowerback 22.5787 -1.67486 -0.24793
upperback 6.52598 -3.47092 -0.19051
thorax -5.43303 -2.19842 0.906173
lowerneck -15.0401 -5.25015 -3.02658
upperneck -7.41956 -7.78395 10.7884
head 0.798356 -4.26763 3.63341
rclavicle 2.27608e-014 -7.15625e-015
rhumerus 69.9336 14.8979 -2.63593
rradius 37.318
rwrist -43.7545
rhand -42.5586 -4.72
rfingers 7.12502
rthumb -15.4333 -34.1238
lclavicle 2.27608e-014 -7.15625e-015
lhumerus 69.5191 -15.7983 -11.2682
lradius 31.8542
lwrist 4.05293
lhand -42.8455 13.6712
lfingers 7.12502
lthumb -15.7096 43.0535
rfemur -29.2351 -11.662 23.2733
rtibia 74.0331
rfoot -32.6624 -5.75923
rtoes 2.38392
lfemur -28.877 2.43178 -19.1874
ltibia 70.358
lfoot -27.3801 -12.2766
ltoes -3.12985
